<svg id="visual" viewBox="0 0 900 450" width="900" height="450" xmlns="http://www.w3.org/2000/svg" xmlns:xlink="http://www.w3.org/1999/xlink" version="1.1"><path d="M0 344L10.7 349C21.3 354 42.7 364 64.2 365.3C85.7 366.7 107.3 359.3 128.8 358.8C150.3 358.3 171.7 364.7 193 365.7C214.3 366.7 235.7 362.3 257 367.7C278.3 373 299.7 388 321.2 390C342.7 392 364.3 381 385.8 373.7C407.3 366.3 428.7 362.7 450 361.3C471.3 360 492.7 361 514.2 362.2C535.7 363.3 557.3 364.7 578.8 372.5C600.3 380.3 621.7 394.7 643 401C664.3 407.3 685.7 405.7 707 405.7C728.3 405.7 749.7 407.3 771.2 397.5C792.7 387.7 814.3 366.3 835.8 360.8C857.3 355.3 878.7 365.7 889.3 370.8L900 376L900 451L889.3 451C878.7 451 857.3 451 835.8 451C814.3 451 792.7 451 771.2 451C749.7 451 728.3 451 707 451C685.7 451 664.3 451 643 451C621.7 451 600.3 451 578.8 451C557.3 451 535.7 451 514.2 451C492.7 451 471.3 451 450 451C428.7 451 407.3 451 385.8 451C364.3 451 342.7 451 321.2 451C299.7 451 278.3 451 257 451C235.7 451 214.3 451 193 451C171.7 451 150.3 451 128.8 451C107.3 451 85.7 451 64.2 451C42.7 451 21.3 451 10.7 451L0 451Z" fill="#fa7268"></path><path d="M0 356L10.7 360.2C21.3 364.3 42.7 372.7 64.2 380.5C85.7 388.3 107.3 395.7 128.8 398.2C150.3 400.7 171.7 398.3 193 398C214.3 397.7 235.7 399.3 257 391.8C278.3 384.3 299.7 367.7 321.2 365.8C342.7 364 364.3 377 385.8 383.3C407.3 389.7 428.7 389.3 450 390.7C471.3 392 492.7 395 514.2 394.8C535.7 394.7 557.3 391.3 578.8 387C600.3 382.7 621.7 377.3 643 375.2C664.3 373 685.7 374 707 374.3C728.3 374.7 749.7 374.3 771.2 375.8C792.7 377.3 814.3 380.7 835.8 386.3C857.3 392 878.7 400 889.3 404L900 408L900 451L889.3 451C878.7 451 857.3 451 835.8 451C814.3 451 792.7 451 771.2 451C749.7 451 728.3 451 707 451C685.7 451 664.3 451 643 451C621.7 451 600.3 451 578.8 451C557.3 451 535.7 451 514.2 451C492.7 451 471.3 451 450 451C428.7 451 407.3 451 385.8 451C364.3 451 342.7 451 321.2 451C299.7 451 278.3 451 257 451C235.7 451 214.3 451 193 451C171.7 451 150.3 451 128.8 451C107.3 451 85.7 451 64.2 451C42.7 451 21.3 451 10.7 451L0 451Z" fill="#ef5f67"></path><path d="M0 400L10.7 394.5C21.3 389 42.7 378 64.2 380.3C85.7 382.7 107.3 398.3 128.8 401.2C150.3 404 171.7 394 193 389C214.3 384 235.7 384 257 386.3C278.3 388.7 299.7 393.3 321.2 399.5C342.7 405.7 364.3 413.3 385.8 417.8C407.3 422.3 428.7 423.7 450 423.3C471.3 423 492.7 421 514.2 412.3C535.7 403.7 557.3 388.3 578.8 383.8C600.3 379.3 621.7 385.7 643 386.7C664.3 387.7 685.7 383.3 707 384.3C728.3 385.3 749.7 391.7 771.2 393.2C792.7 394.7 814.3 391.3 835.8 393C857.3 394.7 878.7 401.3 889.3 404.7L900 408L900 451L889.3 451C878.7 451 857.3 451 835.8 451C814.3 451 792.7 451 771.2 451C749.7 451 728.3 451 707 451C685.7 451 664.3 451 643 451C621.7 451 600.3 451 578.8 451C557.3 451 535.7 451 514.2 451C492.7 451 471.3 451 450 451C428.7 451 407.3 451 385.8 451C364.3 451 342.7 451 321.2 451C299.7 451 278.3 451 257 451C235.7 451 214.3 451 193 451C171.7 451 150.3 451 128.8 451C107.3 451 85.7 451 64.2 451C42.7 451 21.3 451 10.7 451L0 451Z" fill="#e34c67"></path><path d="M0 430L10.7 431C21.3 432 42.7 434 64.2 434.5C85.7 435 107.3 434 128.8 427.3C150.3 420.7 171.7 408.3 193 408.3C214.3 408.3 235.7 420.7 257 419.8C278.3 419 299.7 405 321.2 402.8C342.7 400.7 364.3 410.3 385.8 416.8C407.3 423.3 428.7 426.7 450 425.8C471.3 425 492.7 420 514.2 415C535.7 410 557.3 405 578.8 402.2C600.3 399.3 621.7 398.7 643 402.2C664.3 405.7 685.7 413.3 707 415.8C728.3 418.3 749.7 415.7 771.2 417.7C792.7 419.7 814.3 426.3 835.8 426.7C857.3 427 878.7 421 889.3 418L900 415L900 451L889.3 451C878.7 451 857.3 451 835.8 451C814.3 451 792.7 451 771.2 451C749.7 451 728.3 451 707 451C685.7 451 664.3 451 643 451C621.7 451 600.3 451 578.8 451C557.3 451 535.7 451 514.2 451C492.7 451 471.3 451 450 451C428.7 451 407.3 451 385.8 451C364.3 451 342.7 451 321.2 451C299.7 451 278.3 451 257 451C235.7 451 214.3 451 193 451C171.7 451 150.3 451 128.8 451C107.3 451 85.7 451 64.2 451C42.7 451 21.3 451 10.7 451L0 451Z" fill="#d53867"></path><path d="M0 442L10.7 442.2C21.3 442.3 42.7 442.7 64.2 437.5C85.7 432.3 107.3 421.7 128.8 419.3C150.3 417 171.7 423 193 425C214.3 427 235.7 425 257 422.7C278.3 420.3 299.7 417.7 321.2 416.5C342.7 415.3 364.3 415.7 385.8 417.7C407.3 419.7 428.7 423.3 450 423.8C471.3 424.3 492.7 421.7 514.2 423.3C535.7 425 557.3 431 578.8 434.8C600.3 438.7 621.7 440.3 643 440.3C664.3 440.3 685.7 438.7 707 438.7C728.3 438.7 749.7 440.3 771.2 437.8C792.7 435.3 814.3 428.7 835.8 428.8C857.3 429 878.7 436 889.3 439.5L900 443L900 451L889.3 451C878.7 451 857.3 451 835.8 451C814.3 451 792.7 451 771.2 451C749.7 451 728.3 451 707 451C685.7 451 664.3 451 643 451C621.7 451 600.3 451 578.8 451C557.3 451 535.7 451 514.2 451C492.7 451 471.3 451 450 451C428.7 451 407.3 451 385.8 451C364.3 451 342.7 451 321.2 451C299.7 451 278.3 451 257 451C235.7 451 214.3 451 193 451C171.7 451 150.3 451 128.8 451C107.3 451 85.7 451 64.2 451C42.7 451 21.3 451 10.7 451L0 451Z" fill="#c62368"></path></svg>